<svg version="1.0" xmlns="http://www.w3.org/2000/svg"
     width="600.000000pt" height="600.000000pt" viewBox="0 0 600.000000 600.000000"
     preserveAspectRatio="xMidYMid meet">
  <metadata>
    Otechie Icon
  </metadata>
  <g transform="translate(0.000000,600.000000) scale(0.100000,-0.100000)"
     fill="#549DFF" stroke="none">
    <path d="M2755 5994 c-16 -2 -73 -9 -125 -15 -526 -59 -1073 -290 -1509 -637
-123 -98 -365 -340 -463 -462 -347 -437 -559 -937 -640 -1510 -17 -128 -17
-612 0 -740 99 -700 399 -1304 884 -1776 476 -463 1048 -740 1728 -836 128
-17 612 -17 740 0 573 81 1073 293 1510 640 122 98 364 340 462 463 340 427
553 920 635 1474 28 186 25 650 -5 840 -84 536 -292 1015 -622 1435 -107 135
-345 373 -480 480 -346 272 -732 462 -1155 566 -243 60 -378 76 -670 79 -143
2 -273 1 -290 -1z m565 -1048 c135 -23 320 -76 342 -98 37 -37 24 -72 -56
-153 -92 -93 -160 -200 -199 -313 -42 -123 -49 -287 -18 -417 69 -289 287
-507 576 -576 130 -31 294 -24 417 18 113 39 220 107 313 199 60 59 81 74 105
74 46 0 64 -27 98 -151 44 -160 62 -280 69 -455 22 -572 -194 -1103 -610
-1500 -467 -447 -1116 -633 -1760 -503 -141 28 -255 66 -267 89 -23 43 -12 69
61 142 156 155 226 312 236 523 4 101 2 134 -16 210 -69 289 -287 507 -576
576 -76 18 -109 20 -210 16 -211 -10 -368 -80 -523 -236 -73 -73 -99 -84 -142
-61 -36 19 -96 254 -121 470 -15 137 -6 391 20 540 150 858 846 1514 1721
1620 109 13 428 5 540 -14z"/>
  </g>
</svg>



